<?xml version="1.0" encoding="UTF-8"?>
<svg width="22px" height="20px" viewBox="0 0 22 20" version="1.1" xmlns="http://www.w3.org/2000/svg" xmlns:xlink="http://www.w3.org/1999/xlink">
    <!-- Generator: Sketch 50.2 (55047) - http://www.bohemiancoding.com/sketch -->
    <title>城市</title>
    <desc>Created with Sketch.</desc>
    <defs></defs>
    <g id="Page-1" stroke="none" stroke-width="1" fill="none" fill-rule="evenodd">
        <g id="填写信息" transform="translate(-66.000000, -420.000000)">
            <g id="城市" transform="translate(55.000000, 407.000000)">
                <g transform="translate(11.000000, 13.000000)">
                    <g transform="translate(0.000000, 1.000000)">
                        <rect id="Rectangle-14" fill="#8C8C8C" x="5" y="4" width="5" height="2" rx="1"></rect>
                        <rect id="Rectangle-14-Copy" fill="#8C8C8C" x="5" y="8" width="5" height="2" rx="1"></rect>
                        <rect id="Rectangle-14-Copy-2" fill="#8C8C8C" x="5" y="12" width="5" height="2" rx="1"></rect>
                        <rect id="Rectangle-14-Copy-3" fill="#8C8C8C" x="15" y="9" width="3" height="2" rx="1"></rect>
                        <rect id="Rectangle-14-Copy-4" fill="#8C8C8C" x="15" y="13" width="3" height="2" rx="1"></rect>
                        <rect id="Rectangle-13" fill="#8C8C8C" x="0" y="17" width="22" height="2" rx="1"></rect>
                        <path d="M4,0 L11,0 C12.1045695,-2.02906125e-16 13,0.8954305 13,2 L13,18 L2,18 L2,2 C2,0.8954305 2.8954305,2.02906125e-16 4,0 Z" id="Rectangle-12" stroke="#8C8C8C" stroke-width="2"></path>
                        <path d="M15,5 L18,5 C19.1045695,5 20,5.8954305 20,7 L20,18 L13,18 L13,7 C13,5.8954305 13.8954305,5 15,5 Z" id="Rectangle-12-Copy" stroke="#8C8C8C" stroke-width="2"></path>
                    </g>
                </g>
            </g>
        </g>
    </g>
</svg>