<?xml version="1.0" encoding="UTF-8"?>
<svg width="22px" height="19px" viewBox="0 0 22 19" version="1.1" xmlns="http://www.w3.org/2000/svg" xmlns:xlink="http://www.w3.org/1999/xlink">
    <!-- Generator: Sketch 50.2 (55047) - http://www.bohemiancoding.com/sketch -->
    <title>性别</title>
    <desc>Created with Sketch.</desc>
    <defs></defs>
    <g id="Page-1" stroke="none" stroke-width="1" fill="none" fill-rule="evenodd">
        <g id="填写信息" transform="translate(-65.000000, -309.000000)">
            <g id="性别" transform="translate(55.000000, 295.000000)">
                <g transform="translate(10.000000, 14.000000)">
                    <g transform="translate(1.000000, 0.000000)">
                        <circle id="Oval-5" stroke="#8C8C8C" stroke-width="2" cx="5" cy="6" r="5"></circle>
                        <circle id="Oval-5-Copy" stroke="#8C8C8C" stroke-width="2" cx="15" cy="13" r="5"></circle>
                        <rect id="Rectangle-8" fill="#8C8C8C" x="1" y="13" width="8" height="2" rx="1"></rect>
                        <path d="M15.7253766,0.58177503 L17.8466969,2.70309537 C18.2372212,3.09361966 18.2372212,3.72678464 17.8466969,4.11730894 C17.4561726,4.50783323 16.8230077,4.50783323 16.4324834,4.11730894 L15.0182698,2.70309537 L13.6040562,4.11730894 C13.213532,4.50783323 12.580367,4.50783323 12.1898427,4.11730894 C11.7993184,3.72678464 11.7993184,3.09361966 12.1898427,2.70309537 L14.311163,0.58177503 C14.7016873,0.191250738 15.3348523,0.191250738 15.7253766,0.58177503 Z" id="Combined-Shape" fill="#8C8C8C"></path>
                        <rect id="Rectangle-8-Copy" fill="#8C8C8C" transform="translate(5.000000, 14.000000) rotate(-270.000000) translate(-5.000000, -14.000000) " x="1" y="13" width="8" height="2" rx="1"></rect>
                        <rect id="Rectangle-8-Copy-3" fill="#8C8C8C" transform="translate(15.000000, 5.000000) rotate(-270.000000) translate(-15.000000, -5.000000) " x="11" y="4" width="8" height="2" rx="1"></rect>
                    </g>
                </g>
            </g>
        </g>
    </g>
</svg>